<svg width="239" height="163" viewBox="0 0 239 163" fill="none" xmlns="http://www.w3.org/2000/svg">
<path d="M78.6184 161.937H30.8726V136.09H77.1905" fill="#6D6D6D"/>
<path d="M45.0574 136.953L45.0693 151.771L49.2113 145.051L53.3534 151.771L57.0586 145.762L60.4428 151.254V136.867" stroke="#111111" stroke-width="1.19654" stroke-linecap="round" stroke-linejoin="round"/>
<path d="M51.8321 52.1405L50.4182 46.9104" stroke="#111111" stroke-width="1.19654" stroke-linecap="round" stroke-linejoin="round"/>
<path d="M79.3484 95.0221C79.6974 91.2877 80.7842 84.3633 71.7843 80.0648C62.7843 75.7663 57.2942 71.4936 54.8951 61.9293" stroke="#111111" stroke-width="1.19654" stroke-linecap="round" stroke-linejoin="round"/>
<path d="M56.5578 60.5424L54.3147 52.2387C54.082 51.3775 53.1925 50.8672 52.3278 51.0989L51.1743 51.408C50.3096 51.6398 49.7973 52.5258 50.0299 53.3871L52.2731 61.6907C52.5057 62.552 53.3953 63.0623 54.2599 62.8306L55.4135 62.5214C56.2781 62.2897 56.7905 61.4036 56.5578 60.5424Z" fill="#6D6D6D"/>
<path d="M36.0177 77.5997L30.5814 77.5957" stroke="#111111" stroke-width="1.19654" stroke-linecap="round" stroke-linejoin="round"/>
<path d="M45.3905 75.2438H36.7575C35.8621 75.2438 35.1362 75.9669 35.1362 76.8588V78.0486C35.1362 78.9405 35.8621 79.6635 36.7575 79.6635H45.3905C46.286 79.6635 47.0119 78.9405 47.0119 78.0486V76.8588C47.0119 75.9669 46.286 75.2438 45.3905 75.2438Z" fill="#6D6D6D"/>
<path d="M45.7496 77.2461C45.7496 77.2461 65.7298 76.1258 75.0648 92.841" stroke="#111111" stroke-width="1.19654" stroke-linecap="round" stroke-linejoin="round"/>
<path d="M163.904 114.725C169.266 114.725 173.077 115.972 173.332 127.992C173.588 140.011 173.053 150.877 183.583 150.738C193.313 150.609 191.151 146.687 195.648 146.86" stroke="#111111" stroke-width="1.19654" stroke-linecap="round" stroke-linejoin="round"/>
<path d="M205.942 142.036H194.699C193.982 142.036 193.4 142.615 193.4 143.329V150.305C193.4 151.019 193.982 151.598 194.699 151.598H205.942C206.659 151.598 207.24 151.019 207.24 150.305V143.329C207.24 142.615 206.659 142.036 205.942 142.036Z" fill="#6D6D6D"/>
<path d="M202.482 142.021L202.468 151.614" stroke="#111111" stroke-width="1.19654" stroke-linejoin="round"/>
<path d="M204.961 144.592H212.371" stroke="#111111" stroke-width="1.19654" stroke-linecap="round" stroke-linejoin="round"/>
<path d="M204.961 148.167H212.371" stroke="#111111" stroke-width="1.19654" stroke-linecap="round" stroke-linejoin="round"/>
<path d="M168.141 6.45609V11.3505" stroke="#111111" stroke-width="1.19654" stroke-linecap="round" stroke-linejoin="round"/>
<path d="M170.598 8.90326H165.686" stroke="#111111" stroke-width="1.19654" stroke-linecap="round" stroke-linejoin="round"/>
<path d="M133.198 24.377V29.2695" stroke="#111111" stroke-width="1.19654" stroke-linecap="round" stroke-linejoin="round"/>
<path d="M135.653 26.8243H130.741" stroke="#111111" stroke-width="1.19654" stroke-linecap="round" stroke-linejoin="round"/>
<path d="M105 0.598267V5.49068" stroke="#111111" stroke-width="1.19654" stroke-linecap="round" stroke-linejoin="round"/>
<path d="M107.455 3.0455H102.543" stroke="#111111" stroke-width="1.19654" stroke-linecap="round" stroke-linejoin="round"/>
<path d="M75.4177 40.403V45.2954" stroke="#111111" stroke-width="1.19654" stroke-linecap="round" stroke-linejoin="round"/>
<path d="M77.8746 42.8482H72.9608" stroke="#111111" stroke-width="1.19654" stroke-linecap="round" stroke-linejoin="round"/>
<path d="M41.5117 21.4471V26.3415" stroke="#111111" stroke-width="1.19654" stroke-linecap="round" stroke-linejoin="round"/>
<path d="M43.9666 23.8943H39.0548" stroke="#111111" stroke-width="1.19654" stroke-linecap="round" stroke-linejoin="round"/>
<path d="M36.1494 93.9912V98.8837" stroke="#111111" stroke-width="1.19654" stroke-linecap="round" stroke-linejoin="round"/>
<path d="M38.6042 96.4384H33.6924" stroke="#111111" stroke-width="1.19654" stroke-linecap="round" stroke-linejoin="round"/>
<path d="M26.2878 53.4972V58.3916" stroke="#111111" stroke-width="1.19654" stroke-linecap="round" stroke-linejoin="round"/>
<path d="M28.7447 55.9444H23.8309" stroke="#111111" stroke-width="1.19654" stroke-linecap="round" stroke-linejoin="round"/>
<path d="M190.371 67.5408V72.4352" stroke="#111111" stroke-width="1.19654" stroke-linecap="round" stroke-linejoin="round"/>
<path d="M192.828 69.988H187.916" stroke="#111111" stroke-width="1.19654" stroke-linecap="round" stroke-linejoin="round"/>
<path d="M199.455 26.9613V31.8557" stroke="#111111" stroke-width="1.19654" stroke-linecap="round" stroke-linejoin="round"/>
<path d="M201.909 29.4085H196.998" stroke="#111111" stroke-width="1.19654" stroke-linecap="round" stroke-linejoin="round"/>
<path d="M217.618 98.8161V103.708" stroke="#111111" stroke-width="1.19654" stroke-linecap="round" stroke-linejoin="round"/>
<path d="M220.075 101.261H215.161" stroke="#111111" stroke-width="1.19654" stroke-linecap="round" stroke-linejoin="round"/>
<path d="M107.75 121.187C107.371 120.835 106.935 120.551 106.46 120.344C105.975 120.142 105.454 120.038 104.928 120.038C104.402 120.038 103.882 120.142 103.397 120.344C102.919 120.548 102.48 120.833 102.1 121.187C101.465 121.874 100.972 122.801 100.621 123.967C99.9188 126.698 99.9188 129.56 100.621 132.29C100.972 133.461 101.465 134.388 102.1 135.071C102.479 135.426 102.918 135.711 103.397 135.913C103.881 136.117 104.402 136.221 104.928 136.221C105.454 136.221 105.975 136.117 106.46 135.913C106.935 135.709 107.372 135.424 107.75 135.071C108.392 134.385 108.887 133.458 109.234 132.29C109.93 129.559 109.93 126.698 109.234 123.967C108.887 122.801 108.392 121.874 107.75 121.187ZM106.859 134.189C106.607 134.445 106.306 134.648 105.973 134.784C105.641 134.921 105.284 134.989 104.924 134.984C104.564 134.991 104.207 134.924 103.874 134.788C103.541 134.651 103.24 134.447 102.99 134.189C101.902 132.974 101.359 130.953 101.361 128.127C101.362 125.301 101.905 123.291 102.99 122.096C103.239 121.836 103.539 121.63 103.872 121.491C104.205 121.352 104.563 121.283 104.924 121.288C105.285 121.285 105.642 121.355 105.975 121.494C106.307 121.633 106.608 121.838 106.859 122.096C107.954 123.312 108.501 125.322 108.5 128.127C108.499 130.932 107.951 132.952 106.859 134.189Z" fill="#111111"/>
<path d="M170.423 104.396H149.138C149.049 104.395 148.961 104.374 148.881 104.334C148.78 104.334 148.68 104.308 148.591 104.259C148.503 104.21 148.428 104.14 148.374 104.054L136.656 85.3823V160.731C136.656 160.889 136.593 161.041 136.481 161.152C136.369 161.264 136.217 161.327 136.058 161.327C135.899 161.327 135.747 161.264 135.635 161.152C135.523 161.041 135.46 160.889 135.46 160.731V84.7904L116.036 104.406C115.995 104.521 115.919 104.622 115.819 104.693C115.719 104.764 115.599 104.802 115.476 104.803H75.7926C75.7243 104.803 75.6568 104.79 75.5931 104.765V162.598H170.564V104.376C170.518 104.389 170.471 104.395 170.423 104.396ZM126.767 136.988C126.767 137.778 126.452 138.536 125.891 139.095C125.33 139.654 124.569 139.968 123.776 139.968H86.3979C85.6045 139.968 84.8437 139.654 84.2827 139.095C83.7217 138.536 83.4065 137.778 83.4065 136.988V119.685C83.4065 118.895 83.7217 118.137 84.2827 117.578C84.8437 117.019 85.6045 116.705 86.3979 116.705H123.776C124.569 116.705 125.33 117.019 125.891 117.578C126.452 118.137 126.767 118.895 126.767 119.685V136.988ZM157.345 131.74V151.9H151.811V131.394H147.314L154.926 110.2L162.19 131.74H157.345Z" fill="#111111"/>
<path d="M97.8467 130.961H95.9522V120.704C95.9533 120.621 95.9377 120.54 95.9066 120.463C95.8754 120.387 95.8291 120.317 95.7706 120.259C95.712 120.201 95.6424 120.155 95.5657 120.124C95.489 120.093 95.4068 120.077 95.324 120.078C95.2234 120.072 95.1228 120.092 95.0323 120.136C94.9418 120.181 94.8643 120.247 94.8075 120.33L87.2434 131.224C87.1689 131.33 87.1298 131.457 87.1317 131.587C87.1293 131.67 87.1442 131.752 87.1755 131.829C87.2067 131.905 87.2536 131.975 87.3132 132.032C87.3716 132.091 87.4413 132.137 87.5181 132.168C87.5948 132.199 87.6771 132.214 87.7599 132.213H94.6958V135.602C94.6944 135.684 94.7099 135.766 94.7415 135.843C94.773 135.919 94.8199 135.989 94.8793 136.047C94.9673 136.134 95.0795 136.194 95.2017 136.218C95.3238 136.243 95.4505 136.23 95.5655 136.182C95.6805 136.135 95.7786 136.054 95.8475 135.951C95.9163 135.847 95.9528 135.726 95.9522 135.602V132.213H97.8467C98.0133 132.213 98.1731 132.147 98.2909 132.03C98.4087 131.912 98.4749 131.753 98.4749 131.587C98.4749 131.421 98.4087 131.262 98.2909 131.145C98.1731 131.027 98.0133 130.961 97.8467 130.961ZM94.6958 130.961H88.9744L94.6958 122.73V130.961Z" fill="#111111"/>
<path d="M122.15 130.961H120.252V120.704C120.253 120.621 120.238 120.539 120.206 120.463C120.175 120.386 120.128 120.317 120.068 120.259C120.011 120.2 119.942 120.153 119.865 120.122C119.789 120.091 119.706 120.076 119.624 120.078C119.523 120.072 119.422 120.092 119.332 120.136C119.241 120.18 119.164 120.247 119.107 120.33L111.541 131.224C111.468 131.331 111.43 131.458 111.431 131.587C111.43 131.669 111.446 131.751 111.477 131.827C111.508 131.904 111.554 131.973 111.612 132.031C111.671 132.09 111.74 132.136 111.817 132.167C111.893 132.198 111.975 132.214 112.058 132.213H118.996V135.602C118.994 135.684 119.01 135.766 119.041 135.843C119.073 135.919 119.12 135.989 119.179 136.047C119.298 136.162 119.458 136.227 119.624 136.227C119.79 136.227 119.95 136.162 120.068 136.047C120.128 135.989 120.175 135.919 120.206 135.843C120.238 135.766 120.253 135.684 120.252 135.602V132.213H122.144C122.227 132.214 122.31 132.199 122.386 132.168C122.463 132.137 122.533 132.091 122.591 132.032C122.679 131.944 122.739 131.832 122.763 131.711C122.787 131.589 122.774 131.463 122.727 131.348C122.679 131.234 122.598 131.136 122.494 131.067C122.391 130.998 122.269 130.961 122.144 130.961H122.15ZM119.002 130.961H113.272L118.994 122.73L119.002 130.961Z" fill="#111111"/>
<path d="M114.869 103.619V100.105H53.5191L53.4473 103.641L114.869 103.619Z" fill="#111111"/>
<path d="M192.401 99.6921H149.736V103.206L192.399 103.224L192.397 99.7" fill="#111111"/>
<path d="M192.389 98.3275L170.208 78.3764H163.27C163.27 78.3764 163.76 85.1718 157.648 86.1232C156.35 86.3815 153.121 84.256 151.564 79.9476C151.488 79.3636 152.804 88.4771 147.499 88.9359C140.464 88.9935 131.007 78.8055 131.007 78.8055H75.5914L53.5712 98.9234H115.095L133.215 80.619C133.327 80.5128 133.477 80.4544 133.632 80.4559C133.787 80.4575 133.935 80.519 134.046 80.6275C134.156 80.7359 134.22 80.8829 134.224 81.0373C134.228 81.1917 134.171 81.3416 134.066 81.4553L116.064 99.6305V102.68L135.45 83.094C135.529 83.0162 135.628 82.9613 135.735 82.9351L135.791 82.8914C135.926 82.8078 136.088 82.7808 136.242 82.8161C136.397 82.8515 136.531 82.9464 136.615 83.0801L148.538 102.082V99.3206L140.541 86.7887C140.456 86.6551 140.428 86.4933 140.462 86.3389C140.497 86.1845 140.592 86.0501 140.726 85.9653C140.86 85.8805 141.022 85.8522 141.177 85.8867C141.332 85.9211 141.467 86.0155 141.552 86.149L149.44 98.5102H192.385" fill="#111111"/>
<path d="M135.534 83.2457C135.585 83.1552 135.658 83.0795 135.748 83.0261C135.837 82.9726 135.939 82.9434 136.043 82.9411C135.943 82.9152 135.838 82.9152 135.737 82.9411C135.639 83.0189 135.568 83.1254 135.534 83.2457Z" fill="#111111"/>
<path d="M159.06 44.3777C155.071 43.2872 152.197 43.9606 152.197 43.9606C149.661 38.3332 141.628 33.1051 141.628 33.1051C135.978 36.035 138.573 47.983 138.573 47.983L135.344 49.1887C131.308 44.3062 125.656 38.9649 124.027 38.8497C120.264 38.5835 120.134 55.3921 120.134 55.3921C110.979 60.8169 101.614 66.486 94.327 71.3704C94.5962 67.8804 96.2653 63.3714 100.334 57.8632C107.772 47.7824 109.415 34.4499 102.553 26.3872C92.923 15.0649 84.1006 18.9185 78.8537 23.9182C73.5471 28.9715 72.7394 37.8744 81.0474 31.959C89.4052 25.9999 93.5033 29.0867 97.424 36.4402C101.345 43.7937 89.2357 55.112 83.586 64.297C80.4172 69.4496 78.8557 74.5407 78.9235 78.7975H117.253C117.175 78.8849 117.099 78.9703 117.031 79.0557L118.932 78.7975H131.134C136.006 83.4674 147.427 92.1697 149.978 87.1541C151.264 84.6294 151.827 81.8604 151.292 79.2325C152.423 81.3837 155.961 87.462 159.036 85.7597C161.7 84.2858 163.822 80.1581 163.305 75.8278C165.288 74.0064 166.813 72.0677 167.768 70.0336C175.552 56.0814 162.599 45.3491 159.06 44.3777Z" stroke="#111111" stroke-width="1.19654" stroke-linecap="round" stroke-linejoin="round"/>
<path d="M163.038 52.6927C167.796 45.4544 179.042 44.4214 179.042 44.4214" stroke="#111111" stroke-width="1.19654" stroke-linecap="round" stroke-linejoin="round"/>
<path d="M165.028 58.5504C166.153 56.3098 174.457 51.6578 180.685 53.4673" stroke="#111111" stroke-width="1.19654" stroke-linecap="round" stroke-linejoin="round"/>
<path d="M137.785 64.6669C134.381 63.5579 127.575 62.7968 122.366 67.781" stroke="#111111" stroke-width="1.19654" stroke-linecap="round" stroke-linejoin="round"/>
<path d="M137.494 61.6821C134.207 58.8383 125.471 58.0612 119.416 62.63" stroke="#111111" stroke-width="1.19654" stroke-linecap="round" stroke-linejoin="round"/>
<path d="M125.846 40.2858C125.846 40.2858 121.52 50.5375 126.278 53.9917" stroke="#111111" stroke-width="1.19654" stroke-linecap="round" stroke-linejoin="round"/>
<path d="M142.539 34.5135C142.539 34.5135 140.29 42.2603 142.366 47.5222" stroke="#111111" stroke-width="1.19654" stroke-linecap="round" stroke-linejoin="round"/>
<path d="M143.403 60.2138C144.215 59.9356 144.517 58.6748 144.076 57.3977C143.635 56.1206 142.619 55.3108 141.807 55.589C140.994 55.8671 140.693 57.1279 141.134 58.405C141.575 59.6821 142.59 60.492 143.403 60.2138Z" fill="#111111"/>
<path d="M155.079 56.5092C155.891 56.231 156.192 54.9702 155.752 53.6931C155.311 52.416 154.295 51.6062 153.483 51.8844C152.67 52.1625 152.369 53.4233 152.81 54.7004C153.25 55.9776 154.266 56.7874 155.079 56.5092Z" fill="#111111"/>
<path d="M154.03 58.9065L152.594 61.2635C152.489 61.4275 152.323 61.544 152.133 61.5881C151.943 61.6323 151.742 61.6007 151.575 61.5L149.352 60.1784C149.233 60.1117 149.137 60.011 149.077 59.8894C149.016 59.7678 148.994 59.6309 149.012 59.4964C149.031 59.3619 149.089 59.2361 149.18 59.1351C149.271 59.0342 149.391 58.9629 149.523 58.9304L153.183 57.895C153.815 57.7142 154.353 58.364 154.03 58.9065Z" fill="#111111"/>
<path d="M150.197 63.7401C152.489 66.6356 152.415 63.0286 152.052 61.1288C152.79 62.7802 154.742 65.1749 155.043 62.5199" stroke="#111111" stroke-width="1.19654" stroke-linecap="round" stroke-linejoin="round"/>
<path d="M147.339 88.5764C147.108 87.9447 143.491 80.7779 139.915 78.0784" stroke="#111111" stroke-width="1.19654" stroke-linecap="round" stroke-linejoin="round"/>
<path d="M145.048 75.953C145.22 76.0106 149.435 82.9053 149.603 87.613" stroke="#111111" stroke-width="1.19654" stroke-linecap="round" stroke-linejoin="round"/>
<path d="M117.023 79.0597C120.31 75.0095 135.37 67.1693 143.746 70.9613C152.122 74.7533 152.828 81.5585 149.974 87.1581" stroke="#111111" stroke-width="1.19654" stroke-linecap="round" stroke-linejoin="round"/>
<path d="M153.827 75.0869C153.827 75.0869 157.72 82.4524 157.805 86.0278" stroke="#111111" stroke-width="1.19654" stroke-linecap="round" stroke-linejoin="round"/>
<path d="M158.671 73.4561C158.671 73.4561 161.525 82.0273 159.839 85.3445" stroke="#111111" stroke-width="1.19654" stroke-linecap="round" stroke-linejoin="round"/>
<path d="M146.945 72.2206C147.996 70.5381 157.233 65.0399 161.325 70.7606C162.069 71.7995 162.881 73.8236 163.212 74.9201" stroke="#111111" stroke-width="1.19654" stroke-linecap="round" stroke-linejoin="round"/>
<path d="M0.598267 162.098H237.598" stroke="#111111" stroke-width="1.19654" stroke-linecap="round" stroke-linejoin="round"/>
</svg>
