<svg width="250" height="200" viewBox="0 0 250 200" fill="none" xmlns="http://www.w3.org/2000/svg">
<rect width="250" height="200" fill="#FEF9F2"/>
<path d="M136 64C139.866 64 143 67.134 143 71C143 74.866 139.866 78 136 78H200C203.866 78 207 81.134 207 85C207 88.866 203.866 92 200 92H222C225.866 92 229 95.134 229 99C229 102.866 225.866 106 222 106H203C199.134 106 196 109.134 196 113C196 116.866 199.134 120 203 120H209C212.866 120 216 123.134 216 127C216 130.866 212.866 134 209 134H157C156.485 134 155.983 133.944 155.5 133.839C155.017 133.944 154.515 134 154 134H63C59.134 134 56 130.866 56 127C56 123.134 59.134 120 63 120H24C20.134 120 17 116.866 17 113C17 109.134 20.134 106 24 106H64C67.866 106 71 102.866 71 99C71 95.134 67.866 92 64 92H39C35.134 92 32 88.866 32 85C32 81.134 35.134 78 39 78H79C75.134 78 72 74.866 72 71C72 67.134 75.134 64 79 64H136ZM226 120C229.866 120 233 123.134 233 127C233 130.866 229.866 134 226 134C222.134 134 219 130.866 219 127C219 123.134 222.134 120 226 120Z" fill="#FEF9F2"/>
<path d="M167 148H189.428M64 148H85.4541H64ZM51.1279 148H58H51.1279ZM194.128 148H197H194.128Z" stroke="black" stroke-width="2.5" stroke-linecap="round" stroke-linejoin="round"/>
<path d="M98 43.3027L109.1 55.7559M150.1 43.3027L139 55.7559L150.1 43.3027ZM124 39V55.7559V39Z" stroke="#FEF9F2" stroke-width="2.5" stroke-linecap="round" stroke-linejoin="round"/>
<path fill-rule="evenodd" clip-rule="evenodd" d="M92.7976 71H155.404L149.798 79.4098L157.273 85.0164H90.9287L99.3385 79.4098L92.7976 71Z" fill="#ECE0D9"/>
<rect x="89" y="83" width="71" height="75" rx="2" fill="#FEF9F2"/>
<path fill-rule="evenodd" clip-rule="evenodd" d="M93.5852 124.006V89.6453C93.5852 88.2297 94.7454 87.082 96.1767 87.082L157.153 151.164C157.153 153.052 155.642 154.582 153.778 154.582H96.9601C95.0962 154.582 93.5852 153.052 93.5852 151.164V138.395V134.93V124.006ZM93.5852 131.425V127.577Z" fill="#ECE0D9"/>
<path d="M90 124.463V86.8853C90 85.3371 91.2705 84.082 92.8377 84.082H157.761C158.782 84.082 159.609 84.9187 159.609 85.9509V154.164C159.609 156.228 157.954 157.902 155.913 157.902H93.6956C91.6546 157.902 90 156.228 90 154.164V140.199V136.41M90 132.576V128.368" stroke="black" stroke-width="2.5" stroke-linecap="round"/>
<path d="M91.8631 84.0819V72.8688C91.8631 71.8367 92.614 70.9999 93.5403 70.9999H155.596C156.522 70.9999 157.273 71.8367 157.273 72.8688V84.0819" stroke="black" stroke-width="2.5"/>
<path d="M109.15 103.705C110.956 103.705 112.42 102.241 112.42 100.434C112.42 98.6282 110.956 97.1639 109.15 97.1639C107.344 97.1639 105.879 98.6282 105.879 100.434C105.879 102.241 107.344 103.705 109.15 103.705Z" fill="#ECE0D9" stroke="black" stroke-width="2.5" stroke-linecap="round"/>
<path d="M139.986 103.705C141.792 103.705 143.257 102.241 143.257 100.434C143.257 98.6282 141.792 97.1639 139.986 97.1639C138.18 97.1639 136.716 98.6282 136.716 100.434C136.716 102.241 138.18 103.705 139.986 103.705Z" fill="#ECE0D9" stroke="black" stroke-width="2.5" stroke-linecap="round"/>
<path d="M139.519 103.705C139.519 111.962 132.825 118.656 124.568 118.656C116.311 118.656 109.617 111.962 109.617 103.705" stroke="black" stroke-width="2.5" stroke-linecap="round"/>
<path d="M92.8545 71.9315L99.4329 78.4252C99.8259 78.8132 99.8301 79.4463 99.4421 79.8394C99.3749 79.9074 99.2984 79.9654 99.2148 80.0117L91.863 84.082" stroke="black" stroke-width="2.5" stroke-linecap="round"/>
<path d="M156.44 71.9993L150.145 78.4197C149.758 78.8141 149.765 79.4472 150.159 79.8339C150.225 79.8984 150.299 79.9535 150.38 79.9977L157.867 84.082" stroke="black" stroke-width="2.5" stroke-linecap="round"/>
</svg>
